*******************************************************************************
              Antisocial Behaviour (2007) WEBRip - RadioResearch
*******************************************************************************

-------------------------------------------------------------------------------
                              General Information
-------------------------------------------------------------------------------
Type.................: Movie



Video Format.........: AVI
Video Bitrate........: 1637
Resolution...........: 640 x 480
Color................: 0.203
FPS..................: 24.000
Source...............: WEB 4:3
Original Format......: NTSC
Genre................: Horror
IMDb Rating..........: 3.4
Movie Information....: http://www.imdb.com/title/tt1058502/

-------------------------------------------------------------------------------
                               Post Information
-------------------------------------------------------------------------------
Posted by............: RadioResearch
Posted on............: 5/15/2013

-------------------------------------------------------------------------------
                                 Release Notes
-------------------------------------------------------------------------------
SEEDBOX SUPPORTED!!

Jakob Kelser is a man with a horrific, troubled past. Having been failed by 
society and plagued by a gruesome childhood memory, he is forced to live alone 
in the unholy hell of God's making. A gang of vicious youths terrorizing the 
neighborhood have singled him out for "special treatment". After weeks of 
relentless torment, an incident involving the death of one of the teenagers 
finally pushes him over the edge! Jakob begins to see himself as a solution to 
the problem of Antisocial Behaviour! He plots his revenge but discovers that 
taking "an eye for an eye" is never child's play... One by one they're "taught a 
lesson". One by one they meet their deaths... Where will the carnage end? 

Dunno where this Indie gem has been hiding for the past six years, but I only 
became aware of it yesterday.  It has some decent acting.  Not much gore, but 
the totality of the circumstances with the revenge of Jakob is pretty fierce.

Please vote on IMDB when you are finished.

Enjoy!

RadioResearch

General
Complete name                            : G:Antisocial Behaviour (2007) WEBRip 
- RadioResearchAntisocial Behaviour-{RadioResearch}.avi
Format                                   : AVI
Format/Info                              : Audio Video Interleave
File size                                : 1.02 GiB
Duration                                 : 1h 28mn
Overall bit rate                         : 1 637 Kbps

Video
ID                                       : 0
Format                                   : mp43
Codec ID                                 : mp43
Duration                                 : 1h 28mn
Bit rate                                 : 1 497 Kbps
Width                                    : 640 pixels
Height                                   : 480 pixels
Display aspect ratio                     : 4:3
Frame rate                               : 24.000 fps
Bits/(Pixel*Frame)                       : 0.203
Stream size                              : 952 MiB (91%)

Audio
ID                                       : 1
Format                                   : MPEG Audio
Format version                           : Version 1
Format profile                           : Layer 3
Mode                                     : Joint stereo
Mode extension                           : MS Stereo
Codec ID                                 : 55
Codec ID/Hint                            : MP3
Duration                                 : 1h 28mn
Bit rate mode                            : Constant
Bit rate                                 : 128 Kbps
Channel(s)                               : 2 channels
Sampling rate                            : 44.1 KHz
Compression mode                         : Lossy
Stream size                              : 81.4 MiB (8%)
Alignment                                : Aligned on interleaves
Interleave, duration                     : 26 ms (0.63 video frame)
Writing library                          : LAME3.98.2

AVI FILE MD5 HASH  f635ea7687d4f3db406e045541e1fd23



-------------------------------------------------------------------------------
Generated with Cool NFO Creator - http://fly.to/coolbeans
-------------------------------------------------------------------------------
